<svg id="Layer_1" data-name="Layer 1" xmlns="http://www.w3.org/2000/svg" xmlns:xlink="http://www.w3.org/1999/xlink" viewBox="0 0 448 112"><defs><clipPath id="clip-path"><path d="M25.3438,66.0422a12.2086,12.2086,0,0,1-3.168,2.2657A9.7375,9.7375,0,0,1,17.6,69.342a11.6754,11.6754,0,0,1-5.2578-1.21,9.3329,9.3329,0,0,1-3.916-3.6743,11.8248,11.8248,0,0,1-1.4737-6.16,11.196,11.196,0,0,1,1.4522-5.83A10.1777,10.1777,0,0,1,12.21,48.7058a10.0578,10.0578,0,0,1,4.9941-1.32,8.7331,8.7331,0,0,1,4.3115,1.1,15.5965,15.5965,0,0,1,3.6084,2.772l3.168-3.3a10.707,10.707,0,0,0-2.5742-2.5738,14.7294,14.7294,0,0,0-3.8282-1.98,13.969,13.969,0,0,0-4.6855-.77A14.5182,14.5182,0,0,0,11.44,43.8,15.2554,15.2554,0,0,0,3.3,52.05a16.1322,16.1322,0,0,0-1.1875,6.2481,17.09,17.09,0,0,0,1.958,8.36A14.1743,14.1743,0,0,0,9.35,72.18a14.4088,14.4088,0,0,0,7.458,1.958,16.6445,16.6445,0,0,0,8.3389-2.2A10.3484,10.3484,0,0,0,27.72,69.9138Zm24.64-15.4443V53.634A10.0249,10.0249,0,0,0,47.0566,51.17a8.3275,8.3275,0,0,0-4.2461-1.0562,11.1375,11.1375,0,0,0-5.8076,1.5181,10.6814,10.6814,0,0,0-4.0039,4.2241,12.9668,12.9668,0,0,0-1.4521,6.2256,13.4161,13.4161,0,0,0,1.4082,6.248,10.8686,10.8686,0,0,0,3.8056,4.2681,9.6068,9.6068,0,0,0,5.3028,1.54,8.9509,8.9509,0,0,0,4.7959-1.2758,10.8242,10.8242,0,0,0,3.124-2.7281v3.564h4.5752v-23.1ZM39.5107,68.9241a6.9764,6.9764,0,0,1-2.4638-2.8159,8.97,8.97,0,0,1-.88-4.0264,8.832,8.832,0,0,1,.88-4.0039,6.86,6.86,0,0,1,2.4638-2.772,7.0331,7.0331,0,0,1,7.3047.022,7.0227,7.0227,0,0,1,2.4639,2.7939,8.7451,8.7451,0,0,1,.88,3.96,8.9831,8.9831,0,0,1-.88,4.0264,6.9833,6.9833,0,0,1-2.4639,2.8159,6.61,6.61,0,0,1-3.6963,1.0337A6.4547,6.4547,0,0,1,39.5107,68.9241ZM65.4268,73.698V66.13l2.5078-2.3759,8.5361,9.9438h5.8076L71.1465,60.762,81.9707,50.5979H75.8545l-10.4277,10.34v-19.8H60.8945v32.56Zm37.0918-6.3359A18.0188,18.0188,0,0,1,100.0547,69.1a7.5119,7.5119,0,0,1-3.916.9023,8.2977,8.2977,0,0,1-5.5215-1.8262,7.4018,7.4018,0,0,1-2.5742-4.95h17.6884l.044-1.936a11.758,11.758,0,0,0-1.4082-5.8516A10.5087,10.5087,0,0,0,100.583,51.5a10.0477,10.0477,0,0,0-5.28-1.43,11.961,11.961,0,0,0-5.8515,1.4741,11.2422,11.2422,0,0,0-4.3125,4.2236,12.7811,12.7811,0,0,0-1.628,6.6221,11.8514,11.8514,0,0,0,1.54,6.05,10.9846,10.9846,0,0,0,4.29,4.18,13.6125,13.6125,0,0,0,11.5059.4619,12.7081,12.7081,0,0,0,3.8721-2.42h.0439ZM98.0313,54.8879A5.978,5.978,0,0,1,100.165,56.67a5.0467,5.0467,0,0,1,.99,2.64v.3081H88.2188A6.0712,6.0712,0,0,1,90.7705,55.46a8.3753,8.3753,0,0,1,4.5322-1.21A6.03,6.03,0,0,1,98.0313,54.8879Zm13.8154-11.99v30.8h13.2881a15.9053,15.9053,0,0,0,3.6084-.418,9.7565,9.7565,0,0,0,3.3-1.43,7.4459,7.4459,0,0,0,2.42-2.772,9.5019,9.5019,0,0,0,.9238-4.4439,8.1,8.1,0,0,0-.792-3.74,7.5876,7.5876,0,0,0-2.0459-2.53,8.8736,8.8736,0,0,0-2.706-1.4741,6.6755,6.6755,0,0,0,2.9267-2.5518,6.976,6.976,0,0,0,.9893-3.6963,7.207,7.207,0,0,0-2.2881-5.7636q-2.2881-1.98-6.7754-1.98Zm15.6865,5.522a3.4514,3.4514,0,0,1,1.4736,3.146,3.54,3.54,0,0,1-1.3857,2.9917,5.34,5.34,0,0,1-3.1895,1.1H116.6V47.4739h7.3037A6.5923,6.5923,0,0,1,127.5332,48.42Zm-.1758,12.21a5.2388,5.2388,0,0,1,2.2656,1.32,3.5091,3.5091,0,0,1,.9239,2.5961A3.9424,3.9424,0,0,1,128.9629,68a6.92,6.92,0,0,1-4.0918,1.122H116.6V60.2341h8.0518A9.5227,9.5227,0,0,1,127.3574,60.63Zm33.8369-4.73a11.4023,11.4023,0,0,0-4.2246-4.246,12.3513,12.3513,0,0,0-11.9453,0,11.3382,11.3382,0,0,0-4.2461,4.246,13.1848,13.1848,0,0,0,0,12.4517,11.3356,11.3356,0,0,0,4.2461,4.2461,12.352,12.352,0,0,0,11.9453,0,11.4,11.4,0,0,0,4.2246-4.2461,13.1915,13.1915,0,0,0,0-12.4517Zm-3.96,10.2959A7.1886,7.1886,0,0,1,154.66,68.99a6.7758,6.7758,0,0,1-3.6524,1.0122A6.88,6.88,0,0,1,147.334,68.99a7.1173,7.1173,0,0,1-2.5957-2.794,8.187,8.187,0,0,1-.9024-4.07,8.2875,8.2875,0,0,1,.9024-4.1142,6.9383,6.9383,0,0,1,6.2695-3.7622,6.8929,6.8929,0,0,1,3.6524.99,7.03,7.03,0,0,1,2.5742,2.772,8.3088,8.3088,0,0,1,.9013,4.1142A8.2082,8.2082,0,0,1,157.2344,66.196Zm17.8408-11.1982h5.3682v-4.4h-5.3682v-5.896h-4.5313v5.896H165.748v4.4h4.7959v18.7h4.5313Zm44,11.0444a12.2086,12.2086,0,0,1-3.168,2.2657,9.7371,9.7371,0,0,1-4.5761,1.0341,11.6758,11.6758,0,0,1-5.2579-1.21,9.3329,9.3329,0,0,1-3.916-3.6743,11.8248,11.8248,0,0,1-1.4736-6.16,11.1969,11.1969,0,0,1,1.4521-5.83,10.1784,10.1784,0,0,1,3.8057-3.7622,10.0581,10.0581,0,0,1,4.9941-1.32,8.7337,8.7337,0,0,1,4.3116,1.1,15.5987,15.5987,0,0,1,3.6084,2.772l3.1679-3.3a10.707,10.707,0,0,0-2.5742-2.5738,14.73,14.73,0,0,0-3.8281-1.98,13.97,13.97,0,0,0-4.6856-.77,14.5174,14.5174,0,0,0-5.7636,1.166,15.2554,15.2554,0,0,0-8.1406,8.25,16.1322,16.1322,0,0,0-1.1875,6.2481,17.09,17.09,0,0,0,1.958,8.36,14.1729,14.1729,0,0,0,5.2793,5.5219,14.4082,14.4082,0,0,0,7.458,1.958,16.6437,16.6437,0,0,0,8.3388-2.2,10.3491,10.3491,0,0,0,2.5733-2.0244Zm24.64-15.4443V53.634a10.0231,10.0231,0,0,0-2.9267-2.4638,8.3275,8.3275,0,0,0-4.2461-1.0562,11.1373,11.1373,0,0,0-5.8076,1.5181,10.68,10.68,0,0,0-4.0039,4.2241,12.9657,12.9657,0,0,0-1.4522,6.2256,13.4173,13.4173,0,0,0,1.4082,6.248,10.8689,10.8689,0,0,0,3.8057,4.2681,9.6062,9.6062,0,0,0,5.3027,1.54,8.9506,8.9506,0,0,0,4.7959-1.2758,10.8228,10.8228,0,0,0,3.124-2.7281v3.564H248.29v-23.1ZM233.2422,68.9241a6.9759,6.9759,0,0,1-2.4639-2.8159,8.97,8.97,0,0,1-.88-4.0264,8.832,8.832,0,0,1,.88-4.0039,6.86,6.86,0,0,1,2.4639-2.772,7.0331,7.0331,0,0,1,7.3047.022,7.0225,7.0225,0,0,1,2.4638,2.7939,8.7438,8.7438,0,0,1,.88,3.96,8.9818,8.9818,0,0,1-.88,4.0264,6.9831,6.9831,0,0,1-2.4638,2.8159,6.61,6.61,0,0,1-3.6963,1.0337A6.4545,6.4545,0,0,1,233.2422,68.9241Zm28.7754-13.9263h5.3681v-4.4h-5.3681v-5.896h-4.5313v5.896H252.69v4.4h4.7959v18.7h4.5313Zm48.3564,18.7-11.8359-30.8h-4.84l-11.9248,30.8h4.8409l2.9033-7.6558H302.41l2.9033,7.6558Zm-15.5986-21.78q.5947-1.8486,1.21-3.6963.5727,1.8047,1.1445,3.586t1.1435,3.3222l2.42,6.336h-9.4161l2.3321-6.16Q294.1806,53.7663,294.7754,51.9182Zm33.99-1.3642a5.7432,5.7432,0,0,0-2.5078-.44,7.089,7.089,0,0,0-4.1142,1.3638,8.4791,8.4791,0,0,0-2.9258,3.4761v-4.356h-4.5762v23.1h4.5762v-12.76a5.584,5.584,0,0,1,.9023-3.19,6.2263,6.2263,0,0,1,2.2656-2.0679,5.84,5.84,0,0,1,2.7715-.726,5.7122,5.7122,0,0,1,1.3428.1543,5.1258,5.1258,0,0,1,1.0771.374Zm6.5127,7.5019a7.3835,7.3835,0,0,1,2.64-2.8159,6.9718,6.9718,0,0,1,3.74-1.0342,7.2664,7.2664,0,0,1,3.63,1.0781,8.5506,8.5506,0,0,1,2.8818,2.5743l2.5088-3.08a9.0518,9.0518,0,0,0-3.74-3.3662,12.2712,12.2712,0,0,0-5.72-1.2979,10.6255,10.6255,0,0,0-5.7208,1.584,11.3294,11.3294,0,0,0-4.0253,4.29,13.4652,13.4652,0,0,0,0,12.2539,11.2827,11.2827,0,0,0,4.0253,4.3121,10.6263,10.6263,0,0,0,5.7208,1.5839A11.779,11.779,0,0,0,345.09,73.5a12.9056,12.9056,0,0,0,3.3008-1.6719,9.4691,9.4691,0,0,0,2.2881-2.2217l-2.5088-3.08a13.2428,13.2428,0,0,1-2.64,2.376,6.4858,6.4858,0,0,1-3.8282,1.144,6.8443,6.8443,0,0,1-3.63-1.0341,7.8369,7.8369,0,0,1-2.7276-2.816,7.9484,7.9484,0,0,1-1.0342-4.07A8.3894,8.3894,0,0,1,335.2783,58.0559Zm27.2793-6.688a9.6177,9.6177,0,0,0-3.08,2.8819V41.1379h-4.5322v32.56h4.5322V59.7058a4.9411,4.9411,0,0,1,.792-2.728,5.8558,5.8558,0,0,1,2.1563-1.98,6.3935,6.3935,0,0,1,3.124-.748,4.4753,4.4753,0,0,1,2.9473.6162,4.0062,4.0062,0,0,1,1.4961,2.0678,9.4562,9.4562,0,0,1,.44,2.9922V73.698h4.5322v-14.08a15.8718,15.8718,0,0,0-.6826-4.7959,6.6592,6.6592,0,0,0-2.3975-3.4321,7.9907,7.9907,0,0,0-4.8408-1.2759A8.3492,8.3492,0,0,0,362.5576,51.3679Zm23.8916-6.666a2.98,2.98,0,0,0,.7481-1.98,2.8906,2.8906,0,0,0-.7481-2.0678,3.01,3.01,0,0,0-2.2881-.792,2.8368,2.8368,0,0,0-2.2881.88,2.9782,2.9782,0,0,0-.748,1.98,2.8861,2.8861,0,0,0,.748,2.0679,3.0053,3.0053,0,0,0,2.2881.792A2.8361,2.8361,0,0,0,386.4492,44.7019Zm.044,5.896h-4.5323v23.1h4.5323Zm4.664,0,9.7686,23.1h3.2558l10.252-23.1H409.77l-6.9961,16.5-6.7324-16.5Zm44.3516,16.7642A18.0125,18.0125,0,0,1,433.0449,69.1a7.5116,7.5116,0,0,1-3.916.9023,8.2979,8.2979,0,0,1-5.5215-1.8262,7.4026,7.4026,0,0,1-2.5742-4.95h17.6885l.0439-1.936a11.758,11.758,0,0,0-1.4082-5.8516A10.5079,10.5079,0,0,0,433.5732,51.5a10.0473,10.0473,0,0,0-5.28-1.43,11.9613,11.9613,0,0,0-5.8516,1.4741,11.2436,11.2436,0,0,0-4.3125,4.2236A12.7811,12.7811,0,0,0,416.501,62.39a11.8523,11.8523,0,0,0,1.54,6.05,10.9849,10.9849,0,0,0,4.29,4.18,13.6123,13.6123,0,0,0,11.5058.4619,12.7081,12.7081,0,0,0,3.8721-2.42h.0439Zm-4.4873-12.4742a5.9783,5.9783,0,0,1,2.1338,1.7823,5.0474,5.0474,0,0,1,.99,2.64v.3081H421.209a6.0712,6.0712,0,0,1,2.5517-4.1577,8.3756,8.3756,0,0,1,4.5323-1.21A6.03,6.03,0,0,1,431.0215,54.8879Z" style="fill:none"/></clipPath><linearGradient id="linear-gradient" x1="4" y1="228" x2="348" y2="-116" gradientUnits="userSpaceOnUse"><stop offset="0" stop-color="#11b3ff"/><stop offset="0.5389" stop-color="#1134ff"/><stop offset="1" stop-color="#ff34ff"/></linearGradient></defs><title>logo</title><g style="clip-path:url(#clip-path)"><polyline points="-112 112 -112 0 464 0 464 112" style="fill:url(#linear-gradient)"/></g></svg>